<?xml version="1.0" encoding="UTF-8"?>
<svg enable-background="new 0 0 558.1 143.5" version="1.1" viewBox="0 0 558.1 143.5" xml:space="preserve" xmlns="http://www.w3.org/2000/svg">
<style type="text/css">
	.st0{fill:#FFFFFF;}
</style>
<path class="st0" d="m0.9 67c0.3-2.2 0.6-4.3 0.9-6.5 4.2-25.7 24.4-47.4 49.8-53 23.8-5.2 44.7 0.8 62.1 17.8 10.8 10.6 17 23.8 18.6 38.9 3.1 27.7-11 53.9-36 66.5-10.8 5.5-22.3 7.7-34.4 6.8-16.5-1.2-30.6-7.8-42.2-19.5-9.9-10.1-16-22.4-18.1-36.6-0.2-1.6-0.5-3.2-0.7-4.8v-9.6zm86.7 41c0-9.7-8-17.7-17.6-17.7-10 0-17.9 7.9-17.9 17.7 0 9.7 8 17.7 17.7 17.8 9.8 0 17.8-8 17.8-17.8zm15.6-56.9c-9.6 0-17.8 7.9-17.8 17.4 0 10 7.8 18.1 17.7 18.1 9.7 0 17.8-8 17.8-17.7 0.1-9.7-7.9-17.8-17.7-17.8zm-90.3 23.5c0 9.9 7.9 17.9 17.6 17.9 9.8 0 17.8-8 17.8-17.7s-8-17.7-17.7-17.7c-9.7-0.2-17.7 7.7-17.7 17.5zm33.4-39.1c0 9.7 8 17.7 17.7 17.7s17.8-8.1 17.8-17.8c0-9.9-8-17.7-18.1-17.7-9.5 0.1-17.5 8.2-17.4 17.8z"/>
<path class="st0" d="m331.1 35.2v49.5c0.5-0.4 0.8-0.6 1-0.9 6.5-6.4 13.1-12.8 19.6-19.2 0.7-0.7 1.4-1 2.4-1 2.7 0.1 5.4 0 8.2 0.3-7.7 7-15.4 13.9-23.2 21 8.5 8.4 17.1 16.7 25.8 25.2h-9.8c-0.2 0-0.5-0.2-0.7-0.4-7.2-7.4-14.3-14.8-21.5-22.2-0.6-0.6-1.1-1.1-1.9-2v24.5h-6.8v-74.9c2.3 0.1 4.5 0.1 6.9 0.1z"/>
<path class="st0" d="m245.8 81.6c0.7-8.5-3.3-13.1-11.4-13.4-5.6-0.2-10.4 1.6-14.6 5.4-1.3-1.5-2.5-2.9-3.8-4.5 1.7-1.7 3.7-3 5.8-4 6.4-2.9 13-3.6 19.7-1.5 6.8 2.1 10.8 7.7 10.8 14.8 0 7.7 0 15.4 0.1 23 0 2.9 0.4 5.7 0.6 8.7h-6c-0.2-2.4-0.5-4.8-0.8-7.4-0.3 0.3-0.5 0.6-0.7 0.9-5.6 7.4-16.3 10-24.7 5.8-7.6-3.8-10.2-14.1-5.1-20.5 2.5-3.1 6-4.7 9.8-5.6 5.7-1.5 11.5-1.6 17.4-1.7h2.9zm0 5.3c-1.3 0-2.6-0.1-3.8 0-2.8 0.2-5.7 0.3-8.5 0.6-3.2 0.3-6.3 1-9.1 2.7-1.7 1-3.1 2.2-3.8 4.1-1.4 4.2 0.5 8.6 4.7 10.2 4 1.6 8.1 1.6 12-0.1 6.6-2.7 9.4-9.6 8.5-17.5z"/>
<path class="st0" d="m274.9 110.1h-6.9v-46.4h6.2c0.1 2.5 0.3 5 0.4 7.7 0.2-0.2 0.3-0.3 0.3-0.4 2.9-5 7.5-7.5 13-8.4 3.6-0.6 7.1-0.2 10.5 1.2 5.3 2.2 8 6.5 9.2 11.9 0.4 1.9 0.6 3.9 0.6 5.8 0.1 9.2 0 18.3 0 27.5 0 0.3 0 0.6-0.1 1h-6.8v-1.3c0-8.4 0.1-16.9 0-25.3 0-2.3-0.3-4.6-0.9-6.9-1.4-5.4-5.3-8.4-10.9-8.5-7-0.1-12.3 4.2-14 11.7-0.5 1.9-0.7 3.9-0.7 5.9-0.1 7.6 0 15.2 0 22.8 0.1 0.7 0.1 1.1 0.1 1.7z"/>
<path class="st0" d="m180.8 63.7h6.3c0.1 2.6 0.3 5.1 0.4 7.8 4.5-7.5 11-10.1 19.5-8.6-0.3 2.2-0.6 4.3-0.9 6.5-0.8-0.1-1.4-0.2-2.1-0.3-8.1-1-13.6 2.7-15.5 10.7-0.5 2.3-0.7 4.8-0.8 7.2-0.1 7.2 0 14.5 0 21.7v1.4h-6.9v-46.4z"/>
<path class="st0" d="m479.9 76.8c1.3-3.3 2.8-6.4 5.4-8.8 5.3-4.9 11.6-6.2 18.4-3.9 5.8 1.9 8.4 6.7 9.5 12.4 0.4 2 0.5 4 0.5 6.1 0.1 8.7 0 17.4 0 26v1.5h-2.2v-1.3c0-8.7 0.1-17.4 0-26.2 0-2.4-0.3-4.9-1-7.2-3.5-12.4-15.7-12.4-22.3-7-4 3.2-6.1 7.6-7.1 12.6-0.4 2.1-0.6 4.3-0.6 6.4-0.1 7.1 0 14.2 0 21.2v1.5h-2.2v-1.4c0-9.1 0-18.2-0.1-27.4 0-2.2-0.4-4.4-1-6.5-2.7-9.7-11.4-11.7-18.6-8.4-5.5 2.5-8.4 7.2-9.8 12.9-0.6 2.5-0.9 5-1 7.6-0.1 7.3 0 14.6 0 21.8v1.4h-2.4v-45.6h1.9c0.1 3.8 0.3 7.6 0.4 11.5 0.1 0 0.1 0 0.2 0.1 0.1-0.3 0.2-0.6 0.4-0.8 2.6-6.2 6.9-10.6 13.7-11.8 9-1.6 15.7 3 17.7 11.9 0 0.4 0.1 0.9 0.2 1.4z"/>
<path class="st0" d="m380 66.5h-9.6v-2h9.4v-1.6c0.1-5.9 0.1-11.8 0.2-17.7 0-1.4 0.5-2.8 0.9-4.2 1.9-5.2 6.1-7.2 11.2-7.1 1.3 0 2.6 0.3 4.1 0.5-0.1 0.7-0.3 1.2-0.4 1.8-0.7-0.1-1.3-0.2-1.9-0.3-6.2-0.9-10.5 2.2-11.5 8.4-0.2 1.4-0.3 2.8-0.4 4.2v14.4 1.5h12.3v2h-12.3v43.7h-2.1c0.1-14.5 0.1-29 0.1-43.6z"/>
<path class="st0" d="m526.3 103.7c0.7-0.4 1.2-0.8 1.8-1.2 0.3 0.3 0.5 0.6 0.8 0.9 4.6 5.5 12.6 7.5 19.1 4.8 5.2-2.1 7.8-7 6.7-12.2-0.6-2.8-2.5-4.8-5-5.9-2.7-1.2-5.5-2-8.3-2.9-2.1-0.7-4.2-1.2-6.3-2-4.4-1.8-6.8-4.9-6.9-9.8-0.1-4.5 1.8-7.9 5.7-10.2 5.9-3.4 16.5-3 21.6 3.6 0.2 0.3 0.5 0.6 0.8 1-0.7 0.4-1.2 0.7-1.8 1-1.2-1.1-2.3-2.3-3.6-3.2-4.3-3.2-11.6-3.4-16.1-0.6-3.3 2.1-4.6 5.2-4.3 9 0.3 3.5 2 6 5.2 7.2s6.5 1.9 9.7 3c2.5 0.9 5 1.8 7.2 3.2 3 1.8 4.3 4.7 4.5 8.3 0.4 7.6-5.5 12.7-12.2 13.5-6 0.7-11.5-0.5-16.2-4.7-0.5-0.5-1-1-1.5-1.6-0.2-0.3-0.5-0.7-0.9-1.2z"/>
<path class="st0" d="m427.3 110.1h-2.1v-75h2.1v75z"/>
<path class="st0" d="m406.8 110.1h-2.1v-45.6h2.1v45.6z"/>
<path class="st0" d="m408 44.7c0 1.4-1 2.6-2.2 2.6-1.3 0-2.3-1-2.4-2.5-0.1-1.4 0.9-2.6 2.2-2.6s2.4 1.1 2.4 2.5z"/>
<path class="st0" d="m160.4 47.7c0.5-5.2 3.4-7.7 8.6-7.7 1.5 0 3 0.3 4.6 0.5 0.4-1.9 0.8-3.9 1.1-5.9-4.3-0.9-8.3-1-12.3 0.4-3.1 1.1-5.3 3.1-6.9 6-1.3 2.4-2 4.9-2.1 7.6-0.1 4.5-0.1 9-0.1 13.6v1.6h-9.6v5.7h9.7c0 0.5 0.1 12.2 0.1 12.2 0 0.9 0.7 23.3-20.6 31.7-2.8 1.1-5.6 1.9-8.4 2.7-2.1 2.8-4.5 5.4-7 7.9 5.7-1 11.8-2.5 17.6-4.7 25.5-10 25-37.3 25-37.5 0 0 0.1-11.7 0.1-12.3h10.7v-5.7h-5.3-5.4v-8.4c0-2.7 0-5.2 0.2-7.7z"/>
</svg>
