<?xml version="1.0" standalone="no"?>
<!DOCTYPE svg PUBLIC "-//W3C//DTD SVG 20010904//EN"
 "http://www.w3.org/TR/2001/REC-SVG-20010904/DTD/svg10.dtd">
<svg version="1.0" xmlns="http://www.w3.org/2000/svg"
 width="288.000000pt" height="288.000000pt" viewBox="0 0 288.000000 288.000000"
 preserveAspectRatio="xMidYMid meet">
<metadata>
Created by potrace 1.11, written by Peter Selinger 2001-2013
</metadata>
<g transform="translate(0.000000,288.000000) scale(0.100000,-0.100000)"
fill="#000000" stroke="none">
<path d="M0 1440 l0 -1440 1440 0 1440 0 0 1440 0 1440 -1440 0 -1440 0 0
-1440z m1640 925 c266 -53 530 -260 650 -510 171 -353 108 -772 -159 -1057
-184 -197 -423 -301 -686 -300 -204 0 -368 49 -529 156 -488 325 -565 1006
-162 1433 227 241 557 344 886 278z"/>
<path d="M1312 2197 c-46 -14 -117 -80 -141 -130 -27 -56 -28 -155 -2 -212 23
-52 74 -103 126 -126 48 -22 151 -25 199 -5 51 21 107 76 132 131 93 199 -102
410 -314 342z"/>
<path d="M1855 1711 c-87 -39 -144 -126 -145 -220 0 -84 18 -130 75 -186 187
-187 490 1 413 257 -15 51 -77 121 -131 147 -56 27 -155 28 -212 2z"/>
<path d="M836 1635 c-126 -45 -194 -185 -154 -317 16 -54 88 -132 140 -153
125 -50 274 9 329 130 26 56 25 153 -2 210 -54 114 -194 173 -313 130z"/>
<path d="M1391 1156 c-91 -33 -161 -135 -161 -236 1 -171 164 -289 332 -238
51 15 126 82 149 133 25 54 25 156 0 210 -23 52 -74 103 -126 126 -46 21 -142
24 -194 5z"/>
</g>
</svg>
